<svg width="44" height="43" viewBox="0 0 44 43" fill="none" xmlns="http://www.w3.org/2000/svg">
<rect width="44" height="43" fill="#EFEFEF"/>
<g id="Creative Agency Website Design" clip-path="url(#clip0_0_1)">
<rect width="1400" height="6670" transform="translate(-346 -508)" fill="white"/>
<g id="Header">
<g id="Group">
<g id="video play">
<path id="Ellipse 3295" d="M21.5 51C14.1311 51 7.04867 48.0457 1.73883 42.757C-3.57102 37.4684 -6.69548 30.2565 -6.97891 22.6347C-7.26234 15.0129 -4.68272 7.57372 0.218654 1.87821C5.12003 -3.8173 11.9621 -7.32639 19.3092 -7.91271L19.6111 -3.85965C13.2764 -3.35413 7.37718 -0.328584 3.15121 4.58208C-1.07475 9.49275 -3.2989 15.9068 -3.05453 22.4783C-2.81015 29.0498 -0.116241 35.2679 4.46191 39.8278C9.04006 44.3877 15.1466 46.9349 21.5 46.9349V51Z" fill="#143C3C"/>
<g id="play button">
<ellipse id="base" cx="22" cy="21.5" rx="22" ry="21.5" fill="#83A17D"/>
<path id="play" d="M26.4898 20.2259C27.1511 20.62 27.1377 21.5821 26.4658 21.9577L20.4968 25.2945C19.8249 25.6702 18.9983 25.1775 19.009 24.4078L19.1037 17.5701C19.1144 16.8004 19.9543 16.3309 20.6156 16.725L26.4898 20.2259Z" fill="#FEF6FB"/>
</g>
</g>
</g>
</g>
</g>
<defs>
<clipPath id="clip0_0_1">
<rect width="1400" height="6670" fill="white" transform="translate(-346 -508)"/>
</clipPath>
</defs>
</svg>
